<svg version="1.1" xmlns="http://www.w3.org/2000/svg" xmlns:xlink="http://www.w3.org/1999/xlink" viewBox="364.9,312.3,282,246.4"><g fill="none" fill-rule="nonzero" stroke="none" stroke-width="1" stroke-linecap="butt" stroke-linejoin="miter" stroke-miterlimit="10" stroke-dasharray="" stroke-dashoffset="0" font-family="none" font-weight="none" font-size="none" text-anchor="none" style="mix-blend-mode: normal"><g id="Group 1"><path d="M429.3,359.2c34.7,0 62.9,28.2 62.9,62.9c0,12.6 -3.7,24.4 -10.1,34.2l-52.8,91.4l-52.8,-91.4c-6.4,-9.8 -10.1,-21.6 -10.1,-34.2c0,-34.7 28.2,-62.9 62.9,-62.9z" id="Path 1" fill="#ffffff"/><path d="M429.3,549.2c-0.5,0 -1,-0.3 -1.3,-0.7l-52.8,-91.4c-6.7,-10.3 -10.3,-22.4 -10.3,-35c0,-35.5 28.9,-64.4 64.4,-64.4c35.5,0 64.4,28.9 64.4,64.4c0,12.5 -3.6,24.6 -10.4,35l-52.7,91.4c-0.3,0.5 -0.7,0.7 -1.3,0.7zM429.3,360.7c-33.9,0 -61.4,27.6 -61.4,61.4c0,11.9 3.4,23.5 9.9,33.4l51.6,89.3l51.5,-89.2c6.5,-10 9.9,-21.6 9.9,-33.5c0,-33.8 -27.6,-61.4 -61.5,-61.4z" id="CompoundPath 1" fill="#000000"/></g><path d="M429.3,359.2c34.7,0 62.9,28.2 62.9,62.9c0,12.6 -3.7,24.4 -10.1,34.2l-52.8,91.4l-52.8,-91.4c-6.4,-9.8 -10.1,-21.6 -10.1,-34.2c0,-34.7 28.2,-62.9 62.9,-62.9z" id="Path 1" fill="#ffffff"/><path d="M429.3,549.2c-0.5,0 -1,-0.3 -1.3,-0.7l-52.8,-91.4c-6.7,-10.3 -10.3,-22.4 -10.3,-35c0,-35.5 28.9,-64.4 64.4,-64.4c35.5,0 64.4,28.9 64.4,64.4c0,12.5 -3.6,24.6 -10.4,35l-52.7,91.4c-0.3,0.5 -0.7,0.7 -1.3,0.7zM429.3,360.7c-33.9,0 -61.4,27.6 -61.4,61.4c0,11.9 3.4,23.5 9.9,33.4l51.6,89.3l51.5,-89.2c6.5,-10 9.9,-21.6 9.9,-33.5c0,-33.8 -27.6,-61.4 -61.5,-61.4z" id="CompoundPath 1" fill="#000000"/><g id="Group 1"><path d="M607.9,313.8c20.7,0 37.5,16.8 37.5,37.5c0,7.5 -2.2,14.5 -6,20.4l-31.5,54.5l-31.5,-54.5c-3.8,-5.9 -6,-12.9 -6,-20.4c-0.1,-20.7 16.7,-37.5 37.5,-37.5z" id="Path 1" fill="#ffffff"/><path d="M607.9,427.8c-0.5,0 -1,-0.3 -1.3,-0.7l-31.5,-54.6c-4.1,-6.2 -6.2,-13.6 -6.2,-21.2c0,-21.5 17.5,-39 39,-39c21.5,0 39,17.5 39,39c0,7.6 -2.2,14.9 -6.3,21.2l-31.4,54.5c-0.3,0.5 -0.8,0.8 -1.3,0.8zM607.9,315.3c-19.9,0 -36.1,16.2 -36.1,36.1c0,7 2,13.8 5.8,19.6l30.3,52.4l30.2,-52.3c3.8,-5.9 5.8,-12.7 5.8,-19.7c0,-19.9 -16.2,-36.1 -36,-36.1z" id="CompoundPath 1" fill="#000000"/></g><path d="M607.9,313.8c20.7,0 37.5,16.8 37.5,37.5c0,7.5 -2.2,14.5 -6,20.4l-31.5,54.5l-31.5,-54.5c-3.8,-5.9 -6,-12.9 -6,-20.4c-0.1,-20.7 16.7,-37.5 37.5,-37.5z" id="Path 1" fill="#ffffff"/><path d="M607.9,427.8c-0.5,0 -1,-0.3 -1.3,-0.7l-31.5,-54.6c-4.1,-6.2 -6.2,-13.6 -6.2,-21.2c0,-21.5 17.5,-39 39,-39c21.5,0 39,17.5 39,39c0,7.6 -2.2,14.9 -6.3,21.2l-31.4,54.5c-0.3,0.5 -0.8,0.8 -1.3,0.8zM607.9,315.3c-19.9,0 -36.1,16.2 -36.1,36.1c0,7 2,13.8 5.8,19.6l30.3,52.4l30.2,-52.3c3.8,-5.9 5.8,-12.7 5.8,-19.7c0,-19.9 -16.2,-36.1 -36,-36.1z" id="CompoundPath 1" fill="#000000"/><g id="Group 1"><g id="Group 1"><g id="Group 1" fill="#ffffff"><path d="M429.3,557.2h64.5c17.1,0 31.2,-14 31.2,-31.2v-28.8c0,-17.1 14,-31.2 31.2,-31.2h20.5c17.1,0 31.2,-8.9 31.2,-19.9c0,-10.9 0,-19.9 0,-19.9" id="Path 1"/></g><g id="Group 1" fill="#000000"><g id="Group 1"><path d="M438.2,558.7h-8.8c-0.8,0 -1.5,-0.7 -1.5,-1.5c0,-0.8 0.7,-1.5 1.5,-1.5h8.8c0.8,0 1.5,0.7 1.5,1.5c-0.1,0.8 -0.7,1.5 -1.5,1.5z" id="Path 1"/></g><g id="Group 1"><path d="M477.1,558.7h-18c-0.8,0 -1.5,-0.7 -1.5,-1.5c0,-0.8 0.7,-1.5 1.5,-1.5h18c0.8,0 1.5,0.7 1.5,1.5c-0.1,0.8 -0.7,1.5 -1.5,1.5zM498,558.4c-0.7,0 -1.4,-0.5 -1.5,-1.3c-0.1,-0.8 0.5,-1.5 1.3,-1.7c5.7,-0.8 11,-3.2 15.4,-6.9c0.6,-0.5 1.5,-0.5 2.1,0.2c0.5,0.6 0.5,1.5 -0.2,2.1c-4.8,4.1 -10.7,6.8 -16.9,7.6c-0.1,0 -0.1,0 -0.2,0zM524.5,533.4c-0.1,0 -0.2,0 -0.3,0c-0.8,-0.2 -1.3,-0.9 -1.2,-1.7c0.4,-1.8 0.5,-3.7 0.5,-5.6v-12.1c0,-0.8 0.7,-1.5 1.5,-1.5c0.8,0 1.5,0.7 1.5,1.5v12.1c0,2.1 -0.2,4.1 -0.6,6.1c-0.1,0.7 -0.7,1.2 -1.4,1.2zM525.3,494.5c-0.1,0 -0.1,0 -0.2,0c-0.8,-0.1 -1.4,-0.9 -1.3,-1.7c0.9,-6.2 3.5,-12.1 7.7,-16.9c0.5,-0.6 1.5,-0.7 2.1,-0.1c0.6,0.5 0.7,1.5 0.1,2.1c-3.8,4.4 -6.2,9.7 -7,15.4c0,0.7 -0.6,1.2 -1.4,1.2zM550.4,468.1c-0.7,0 -1.3,-0.5 -1.4,-1.2c-0.2,-0.8 0.4,-1.6 1.2,-1.7c2,-0.4 4,-0.6 6,-0.6h12.2c0.8,0 1.5,0.7 1.5,1.5c0,0.8 -0.7,1.5 -1.5,1.5h-12.2c-1.8,0 -3.7,0.2 -5.5,0.5c-0.1,0 -0.2,0 -0.3,0zM589.2,465.9c-0.6,0 -1.2,-0.4 -1.4,-1.1c-0.2,-0.8 0.2,-1.6 1,-1.8c6.2,-1.7 11.3,-4.8 14.4,-8.6c0.5,-0.6 1.4,-0.7 2.1,-0.2c0.7,0.5 0.7,1.4 0.2,2.1c-3.5,4.3 -9.1,7.7 -15.9,9.6c-0.2,0 -0.3,0 -0.4,0z" id="CompoundPath 1"/></g><g id="Group 1"><path d="M607.9,436.6c-0.8,0 -1.5,-0.7 -1.5,-1.5v-8.8c0,-0.8 0.7,-1.5 1.5,-1.5c0.8,0 1.5,0.7 1.5,1.5v8.8c-0.1,0.9 -0.7,1.5 -1.5,1.5z" id="Path 1"/></g></g></g><g id="Group 1" fill="#000000"><g id="Group 1"><path d="M438.2,558.7h-8.8c-0.8,0 -1.5,-0.7 -1.5,-1.5c0,-0.8 0.7,-1.5 1.5,-1.5h8.8c0.8,0 1.5,0.7 1.5,1.5c-0.1,0.8 -0.7,1.5 -1.5,1.5z" id="Path 1"/></g><g id="Group 1"><path d="M477.1,558.7h-18c-0.8,0 -1.5,-0.7 -1.5,-1.5c0,-0.8 0.7,-1.5 1.5,-1.5h18c0.8,0 1.5,0.7 1.5,1.5c-0.1,0.8 -0.7,1.5 -1.5,1.5zM498,558.4c-0.7,0 -1.4,-0.5 -1.5,-1.3c-0.1,-0.8 0.5,-1.5 1.3,-1.7c5.7,-0.8 11,-3.2 15.4,-6.9c0.6,-0.5 1.5,-0.5 2.1,0.2c0.5,0.6 0.5,1.5 -0.2,2.1c-4.8,4.1 -10.7,6.8 -16.9,7.6c-0.1,0 -0.1,0 -0.2,0zM524.5,533.4c-0.1,0 -0.2,0 -0.3,0c-0.8,-0.2 -1.3,-0.9 -1.2,-1.7c0.4,-1.8 0.5,-3.7 0.5,-5.6v-12.1c0,-0.8 0.7,-1.5 1.5,-1.5c0.8,0 1.5,0.7 1.5,1.5v12.1c0,2.1 -0.2,4.1 -0.6,6.1c-0.1,0.7 -0.7,1.2 -1.4,1.2zM525.3,494.5c-0.1,0 -0.1,0 -0.2,0c-0.8,-0.1 -1.4,-0.9 -1.3,-1.7c0.9,-6.2 3.5,-12.1 7.7,-16.9c0.5,-0.6 1.5,-0.7 2.1,-0.1c0.6,0.5 0.7,1.5 0.1,2.1c-3.8,4.4 -6.2,9.7 -7,15.4c0,0.7 -0.6,1.2 -1.4,1.2zM550.4,468.1c-0.7,0 -1.3,-0.5 -1.4,-1.2c-0.2,-0.8 0.4,-1.6 1.2,-1.7c2,-0.4 4,-0.6 6,-0.6h12.2c0.8,0 1.5,0.7 1.5,1.5c0,0.8 -0.7,1.5 -1.5,1.5h-12.2c-1.8,0 -3.7,0.2 -5.5,0.5c-0.1,0 -0.2,0 -0.3,0zM589.2,465.9c-0.6,0 -1.2,-0.4 -1.4,-1.1c-0.2,-0.8 0.2,-1.6 1,-1.8c6.2,-1.7 11.3,-4.8 14.4,-8.6c0.5,-0.6 1.4,-0.7 2.1,-0.2c0.7,0.5 0.7,1.4 0.2,2.1c-3.5,4.3 -9.1,7.7 -15.9,9.6c-0.2,0 -0.3,0 -0.4,0z" id="CompoundPath 1"/></g><g id="Group 1"><path d="M607.9,436.6c-0.8,0 -1.5,-0.7 -1.5,-1.5v-8.8c0,-0.8 0.7,-1.5 1.5,-1.5c0.8,0 1.5,0.7 1.5,1.5v8.8c-0.1,0.9 -0.7,1.5 -1.5,1.5z" id="Path 1"/></g></g></g><g id="Group 1"><g id="Group 1" fill="#ffffff"><path d="M429.3,557.2h64.5c17.1,0 31.2,-14 31.2,-31.2v-28.8c0,-17.1 14,-31.2 31.2,-31.2h20.5c17.1,0 31.2,-8.9 31.2,-19.9c0,-10.9 0,-19.9 0,-19.9" id="Path 1"/></g><g id="Group 1" fill="#000000"><g id="Group 1"><path d="M438.2,558.7h-8.8c-0.8,0 -1.5,-0.7 -1.5,-1.5c0,-0.8 0.7,-1.5 1.5,-1.5h8.8c0.8,0 1.5,0.7 1.5,1.5c-0.1,0.8 -0.7,1.5 -1.5,1.5z" id="Path 1"/></g><g id="Group 1"><path d="M477.1,558.7h-18c-0.8,0 -1.5,-0.7 -1.5,-1.5c0,-0.8 0.7,-1.5 1.5,-1.5h18c0.8,0 1.5,0.7 1.5,1.5c-0.1,0.8 -0.7,1.5 -1.5,1.5zM498,558.4c-0.7,0 -1.4,-0.5 -1.5,-1.3c-0.1,-0.8 0.5,-1.5 1.3,-1.7c5.7,-0.8 11,-3.2 15.4,-6.9c0.6,-0.5 1.5,-0.5 2.1,0.2c0.5,0.6 0.5,1.5 -0.2,2.1c-4.8,4.1 -10.7,6.8 -16.9,7.6c-0.1,0 -0.1,0 -0.2,0zM524.5,533.4c-0.1,0 -0.2,0 -0.3,0c-0.8,-0.2 -1.3,-0.9 -1.2,-1.7c0.4,-1.8 0.5,-3.7 0.5,-5.6v-12.1c0,-0.8 0.7,-1.5 1.5,-1.5c0.8,0 1.5,0.7 1.5,1.5v12.1c0,2.1 -0.2,4.1 -0.6,6.1c-0.1,0.7 -0.7,1.2 -1.4,1.2zM525.3,494.5c-0.1,0 -0.1,0 -0.2,0c-0.8,-0.1 -1.4,-0.9 -1.3,-1.7c0.9,-6.2 3.5,-12.1 7.7,-16.9c0.5,-0.6 1.5,-0.7 2.1,-0.1c0.6,0.5 0.7,1.5 0.1,2.1c-3.8,4.4 -6.2,9.7 -7,15.4c0,0.7 -0.6,1.2 -1.4,1.2zM550.4,468.1c-0.7,0 -1.3,-0.5 -1.4,-1.2c-0.2,-0.8 0.4,-1.6 1.2,-1.7c2,-0.4 4,-0.6 6,-0.6h12.2c0.8,0 1.5,0.7 1.5,1.5c0,0.8 -0.7,1.5 -1.5,1.5h-12.2c-1.8,0 -3.7,0.2 -5.5,0.5c-0.1,0 -0.2,0 -0.3,0zM589.2,465.9c-0.6,0 -1.2,-0.4 -1.4,-1.1c-0.2,-0.8 0.2,-1.6 1,-1.8c6.2,-1.7 11.3,-4.8 14.4,-8.6c0.5,-0.6 1.4,-0.7 2.1,-0.2c0.7,0.5 0.7,1.4 0.2,2.1c-3.5,4.3 -9.1,7.7 -15.9,9.6c-0.2,0 -0.3,0 -0.4,0z" id="CompoundPath 1"/></g><g id="Group 1"><path d="M607.9,436.6c-0.8,0 -1.5,-0.7 -1.5,-1.5v-8.8c0,-0.8 0.7,-1.5 1.5,-1.5c0.8,0 1.5,0.7 1.5,1.5v8.8c-0.1,0.9 -0.7,1.5 -1.5,1.5z" id="Path 1"/></g></g></g><g id="Group 1" fill="#ffffff"><path d="M429.3,557.2h64.5c17.1,0 31.2,-14 31.2,-31.2v-28.8c0,-17.1 14,-31.2 31.2,-31.2h20.5c17.1,0 31.2,-8.9 31.2,-19.9c0,-10.9 0,-19.9 0,-19.9" id="Path 1"/></g><path d="M429.3,557.2h64.5c17.1,0 31.2,-14 31.2,-31.2v-28.8c0,-17.1 14,-31.2 31.2,-31.2h20.5c17.1,0 31.2,-8.9 31.2,-19.9c0,-10.9 0,-19.9 0,-19.9" id="Path 1" fill="#ffffff"/><g id="Group 1" fill="#000000"><g id="Group 1"><path d="M438.2,558.7h-8.8c-0.8,0 -1.5,-0.7 -1.5,-1.5c0,-0.8 0.7,-1.5 1.5,-1.5h8.8c0.8,0 1.5,0.7 1.5,1.5c-0.1,0.8 -0.7,1.5 -1.5,1.5z" id="Path 1"/></g><g id="Group 1"><path d="M477.1,558.7h-18c-0.8,0 -1.5,-0.7 -1.5,-1.5c0,-0.8 0.7,-1.5 1.5,-1.5h18c0.8,0 1.5,0.7 1.5,1.5c-0.1,0.8 -0.7,1.5 -1.5,1.5zM498,558.4c-0.7,0 -1.4,-0.5 -1.5,-1.3c-0.1,-0.8 0.5,-1.5 1.3,-1.7c5.7,-0.8 11,-3.2 15.4,-6.9c0.6,-0.5 1.5,-0.5 2.1,0.2c0.5,0.6 0.5,1.5 -0.2,2.1c-4.8,4.1 -10.7,6.8 -16.9,7.6c-0.1,0 -0.1,0 -0.2,0zM524.5,533.4c-0.1,0 -0.2,0 -0.3,0c-0.8,-0.2 -1.3,-0.9 -1.2,-1.7c0.4,-1.8 0.5,-3.7 0.5,-5.6v-12.1c0,-0.8 0.7,-1.5 1.5,-1.5c0.8,0 1.5,0.7 1.5,1.5v12.1c0,2.1 -0.2,4.1 -0.6,6.1c-0.1,0.7 -0.7,1.2 -1.4,1.2zM525.3,494.5c-0.1,0 -0.1,0 -0.2,0c-0.8,-0.1 -1.4,-0.9 -1.3,-1.7c0.9,-6.2 3.5,-12.1 7.7,-16.9c0.5,-0.6 1.5,-0.7 2.1,-0.1c0.6,0.5 0.7,1.5 0.1,2.1c-3.8,4.4 -6.2,9.7 -7,15.4c0,0.7 -0.6,1.2 -1.4,1.2zM550.4,468.1c-0.7,0 -1.3,-0.5 -1.4,-1.2c-0.2,-0.8 0.4,-1.6 1.2,-1.7c2,-0.4 4,-0.6 6,-0.6h12.2c0.8,0 1.5,0.7 1.5,1.5c0,0.8 -0.7,1.5 -1.5,1.5h-12.2c-1.8,0 -3.7,0.2 -5.5,0.5c-0.1,0 -0.2,0 -0.3,0zM589.2,465.9c-0.6,0 -1.2,-0.4 -1.4,-1.1c-0.2,-0.8 0.2,-1.6 1,-1.8c6.2,-1.7 11.3,-4.8 14.4,-8.6c0.5,-0.6 1.4,-0.7 2.1,-0.2c0.7,0.5 0.7,1.4 0.2,2.1c-3.5,4.3 -9.1,7.7 -15.9,9.6c-0.2,0 -0.3,0 -0.4,0z" id="CompoundPath 1"/></g><g id="Group 1"><path d="M607.9,436.6c-0.8,0 -1.5,-0.7 -1.5,-1.5v-8.8c0,-0.8 0.7,-1.5 1.5,-1.5c0.8,0 1.5,0.7 1.5,1.5v8.8c-0.1,0.9 -0.7,1.5 -1.5,1.5z" id="Path 1"/></g></g><g id="Group 1" fill="#000000"><path d="M438.2,558.7h-8.8c-0.8,0 -1.5,-0.7 -1.5,-1.5c0,-0.8 0.7,-1.5 1.5,-1.5h8.8c0.8,0 1.5,0.7 1.5,1.5c-0.1,0.8 -0.7,1.5 -1.5,1.5z" id="Path 1"/></g><path d="M438.2,558.7h-8.8c-0.8,0 -1.5,-0.7 -1.5,-1.5c0,-0.8 0.7,-1.5 1.5,-1.5h8.8c0.8,0 1.5,0.7 1.5,1.5c-0.1,0.8 -0.7,1.5 -1.5,1.5z" id="Path 1" fill="#000000"/><g id="Group 1" fill="#000000"><path d="M477.1,558.7h-18c-0.8,0 -1.5,-0.7 -1.5,-1.5c0,-0.8 0.7,-1.5 1.5,-1.5h18c0.8,0 1.5,0.7 1.5,1.5c-0.1,0.8 -0.7,1.5 -1.5,1.5zM498,558.4c-0.7,0 -1.4,-0.5 -1.5,-1.3c-0.1,-0.8 0.5,-1.5 1.3,-1.7c5.7,-0.8 11,-3.2 15.4,-6.9c0.6,-0.5 1.5,-0.5 2.1,0.2c0.5,0.6 0.5,1.5 -0.2,2.1c-4.8,4.1 -10.7,6.8 -16.9,7.6c-0.1,0 -0.1,0 -0.2,0zM524.5,533.4c-0.1,0 -0.2,0 -0.3,0c-0.8,-0.2 -1.3,-0.9 -1.2,-1.7c0.4,-1.8 0.5,-3.7 0.5,-5.6v-12.1c0,-0.8 0.7,-1.5 1.5,-1.5c0.8,0 1.5,0.7 1.5,1.5v12.1c0,2.1 -0.2,4.1 -0.6,6.1c-0.1,0.7 -0.7,1.2 -1.4,1.2zM525.3,494.5c-0.1,0 -0.1,0 -0.2,0c-0.8,-0.1 -1.4,-0.9 -1.3,-1.7c0.9,-6.2 3.5,-12.1 7.7,-16.9c0.5,-0.6 1.5,-0.7 2.1,-0.1c0.6,0.5 0.7,1.5 0.1,2.1c-3.8,4.4 -6.2,9.7 -7,15.4c0,0.7 -0.6,1.2 -1.4,1.2zM550.4,468.1c-0.7,0 -1.3,-0.5 -1.4,-1.2c-0.2,-0.8 0.4,-1.6 1.2,-1.7c2,-0.4 4,-0.6 6,-0.6h12.2c0.8,0 1.5,0.7 1.5,1.5c0,0.8 -0.7,1.5 -1.5,1.5h-12.2c-1.8,0 -3.7,0.2 -5.5,0.5c-0.1,0 -0.2,0 -0.3,0zM589.2,465.9c-0.6,0 -1.2,-0.4 -1.4,-1.1c-0.2,-0.8 0.2,-1.6 1,-1.8c6.2,-1.7 11.3,-4.8 14.4,-8.6c0.5,-0.6 1.4,-0.7 2.1,-0.2c0.7,0.5 0.7,1.4 0.2,2.1c-3.5,4.3 -9.1,7.7 -15.9,9.6c-0.2,0 -0.3,0 -0.4,0z" id="CompoundPath 1"/></g><path d="M477.1,558.7h-18c-0.8,0 -1.5,-0.7 -1.5,-1.5c0,-0.8 0.7,-1.5 1.5,-1.5h18c0.8,0 1.5,0.7 1.5,1.5c-0.1,0.8 -0.7,1.5 -1.5,1.5zM498,558.4c-0.7,0 -1.4,-0.5 -1.5,-1.3c-0.1,-0.8 0.5,-1.5 1.3,-1.7c5.7,-0.8 11,-3.2 15.4,-6.9c0.6,-0.5 1.5,-0.5 2.1,0.2c0.5,0.6 0.5,1.5 -0.2,2.1c-4.8,4.1 -10.7,6.8 -16.9,7.6c-0.1,0 -0.1,0 -0.2,0zM524.5,533.4c-0.1,0 -0.2,0 -0.3,0c-0.8,-0.2 -1.3,-0.9 -1.2,-1.7c0.4,-1.8 0.5,-3.7 0.5,-5.6v-12.1c0,-0.8 0.7,-1.5 1.5,-1.5c0.8,0 1.5,0.7 1.5,1.5v12.1c0,2.1 -0.2,4.1 -0.6,6.1c-0.1,0.7 -0.7,1.2 -1.4,1.2zM525.3,494.5c-0.1,0 -0.1,0 -0.2,0c-0.8,-0.1 -1.4,-0.9 -1.3,-1.7c0.9,-6.2 3.5,-12.1 7.7,-16.9c0.5,-0.6 1.5,-0.7 2.1,-0.1c0.6,0.5 0.7,1.5 0.1,2.1c-3.8,4.4 -6.2,9.7 -7,15.4c0,0.7 -0.6,1.2 -1.4,1.2zM550.4,468.1c-0.7,0 -1.3,-0.5 -1.4,-1.2c-0.2,-0.8 0.4,-1.6 1.2,-1.7c2,-0.4 4,-0.6 6,-0.6h12.2c0.8,0 1.5,0.7 1.5,1.5c0,0.8 -0.7,1.5 -1.5,1.5h-12.2c-1.8,0 -3.7,0.2 -5.5,0.5c-0.1,0 -0.2,0 -0.3,0zM589.2,465.9c-0.6,0 -1.2,-0.4 -1.4,-1.1c-0.2,-0.8 0.2,-1.6 1,-1.8c6.2,-1.7 11.3,-4.8 14.4,-8.6c0.5,-0.6 1.4,-0.7 2.1,-0.2c0.7,0.5 0.7,1.4 0.2,2.1c-3.5,4.3 -9.1,7.7 -15.9,9.6c-0.2,0 -0.3,0 -0.4,0z" id="CompoundPath 1" fill="#000000"/><g id="Group 1" fill="#000000"><path d="M607.9,436.6c-0.8,0 -1.5,-0.7 -1.5,-1.5v-8.8c0,-0.8 0.7,-1.5 1.5,-1.5c0.8,0 1.5,0.7 1.5,1.5v8.8c-0.1,0.9 -0.7,1.5 -1.5,1.5z" id="Path 1"/></g><path d="M607.9,436.6c-0.8,0 -1.5,-0.7 -1.5,-1.5v-8.8c0,-0.8 0.7,-1.5 1.5,-1.5c0.8,0 1.5,0.7 1.5,1.5v8.8c-0.1,0.9 -0.7,1.5 -1.5,1.5z" id="Path 1" fill="#000000"/><g id="Group 1" fill="#000000"><g id="Group 1"><path d="M438.2,558.7h-8.8c-0.8,0 -1.5,-0.7 -1.5,-1.5c0,-0.8 0.7,-1.5 1.5,-1.5h8.8c0.8,0 1.5,0.7 1.5,1.5c-0.1,0.8 -0.7,1.5 -1.5,1.5z" id="Path 1"/></g><g id="Group 1"><path d="M477.1,558.7h-18c-0.8,0 -1.5,-0.7 -1.5,-1.5c0,-0.8 0.7,-1.5 1.5,-1.5h18c0.8,0 1.5,0.7 1.5,1.5c-0.1,0.8 -0.7,1.5 -1.5,1.5zM498,558.4c-0.7,0 -1.4,-0.5 -1.5,-1.3c-0.1,-0.8 0.5,-1.5 1.3,-1.7c5.7,-0.8 11,-3.2 15.4,-6.9c0.6,-0.5 1.5,-0.5 2.1,0.2c0.5,0.6 0.5,1.5 -0.2,2.1c-4.8,4.1 -10.7,6.8 -16.9,7.6c-0.1,0 -0.1,0 -0.2,0zM524.5,533.4c-0.1,0 -0.2,0 -0.3,0c-0.8,-0.2 -1.3,-0.9 -1.2,-1.7c0.4,-1.8 0.5,-3.7 0.5,-5.6v-12.1c0,-0.8 0.7,-1.5 1.5,-1.5c0.8,0 1.5,0.7 1.5,1.5v12.1c0,2.1 -0.2,4.1 -0.6,6.1c-0.1,0.7 -0.7,1.2 -1.4,1.2zM525.3,494.5c-0.1,0 -0.1,0 -0.2,0c-0.8,-0.1 -1.4,-0.9 -1.3,-1.7c0.9,-6.2 3.5,-12.1 7.7,-16.9c0.5,-0.6 1.5,-0.7 2.1,-0.1c0.6,0.5 0.7,1.5 0.1,2.1c-3.8,4.4 -6.2,9.7 -7,15.4c0,0.7 -0.6,1.2 -1.4,1.2zM550.4,468.1c-0.7,0 -1.3,-0.5 -1.4,-1.2c-0.2,-0.8 0.4,-1.6 1.2,-1.7c2,-0.4 4,-0.6 6,-0.6h12.2c0.8,0 1.5,0.7 1.5,1.5c0,0.8 -0.7,1.5 -1.5,1.5h-12.2c-1.8,0 -3.7,0.2 -5.5,0.5c-0.1,0 -0.2,0 -0.3,0zM589.2,465.9c-0.6,0 -1.2,-0.4 -1.4,-1.1c-0.2,-0.8 0.2,-1.6 1,-1.8c6.2,-1.7 11.3,-4.8 14.4,-8.6c0.5,-0.6 1.4,-0.7 2.1,-0.2c0.7,0.5 0.7,1.4 0.2,2.1c-3.5,4.3 -9.1,7.7 -15.9,9.6c-0.2,0 -0.3,0 -0.4,0z" id="CompoundPath 1"/></g><g id="Group 1"><path d="M607.9,436.6c-0.8,0 -1.5,-0.7 -1.5,-1.5v-8.8c0,-0.8 0.7,-1.5 1.5,-1.5c0.8,0 1.5,0.7 1.5,1.5v8.8c-0.1,0.9 -0.7,1.5 -1.5,1.5z" id="Path 1"/></g></g><g id="Group 1" fill="#000000"><path d="M438.2,558.7h-8.8c-0.8,0 -1.5,-0.7 -1.5,-1.5c0,-0.8 0.7,-1.5 1.5,-1.5h8.8c0.8,0 1.5,0.7 1.5,1.5c-0.1,0.8 -0.7,1.5 -1.5,1.5z" id="Path 1"/></g><path d="M438.2,558.7h-8.8c-0.8,0 -1.5,-0.7 -1.5,-1.5c0,-0.8 0.7,-1.5 1.5,-1.5h8.8c0.8,0 1.5,0.7 1.5,1.5c-0.1,0.8 -0.7,1.5 -1.5,1.5z" id="Path 1" fill="#000000"/><g id="Group 1" fill="#000000"><path d="M477.1,558.7h-18c-0.8,0 -1.5,-0.7 -1.5,-1.5c0,-0.8 0.7,-1.5 1.5,-1.5h18c0.8,0 1.5,0.7 1.5,1.5c-0.1,0.8 -0.7,1.5 -1.5,1.5zM498,558.4c-0.7,0 -1.4,-0.5 -1.5,-1.3c-0.1,-0.8 0.5,-1.5 1.3,-1.7c5.7,-0.8 11,-3.2 15.4,-6.9c0.6,-0.5 1.5,-0.5 2.1,0.2c0.5,0.6 0.5,1.5 -0.2,2.1c-4.8,4.1 -10.7,6.8 -16.9,7.6c-0.1,0 -0.1,0 -0.2,0zM524.5,533.4c-0.1,0 -0.2,0 -0.3,0c-0.8,-0.2 -1.3,-0.9 -1.2,-1.7c0.4,-1.8 0.5,-3.7 0.5,-5.6v-12.1c0,-0.8 0.7,-1.5 1.5,-1.5c0.8,0 1.5,0.7 1.5,1.5v12.1c0,2.1 -0.2,4.1 -0.6,6.1c-0.1,0.7 -0.7,1.2 -1.4,1.2zM525.3,494.5c-0.1,0 -0.1,0 -0.2,0c-0.8,-0.1 -1.4,-0.9 -1.3,-1.7c0.9,-6.2 3.5,-12.1 7.7,-16.9c0.5,-0.6 1.5,-0.7 2.1,-0.1c0.6,0.5 0.7,1.5 0.1,2.1c-3.8,4.4 -6.2,9.7 -7,15.4c0,0.7 -0.6,1.2 -1.4,1.2zM550.4,468.1c-0.7,0 -1.3,-0.5 -1.4,-1.2c-0.2,-0.8 0.4,-1.6 1.2,-1.7c2,-0.4 4,-0.6 6,-0.6h12.2c0.8,0 1.5,0.7 1.5,1.5c0,0.8 -0.7,1.5 -1.5,1.5h-12.2c-1.8,0 -3.7,0.2 -5.5,0.5c-0.1,0 -0.2,0 -0.3,0zM589.2,465.9c-0.6,0 -1.2,-0.4 -1.4,-1.1c-0.2,-0.8 0.2,-1.6 1,-1.8c6.2,-1.7 11.3,-4.8 14.4,-8.6c0.5,-0.6 1.4,-0.7 2.1,-0.2c0.7,0.5 0.7,1.4 0.2,2.1c-3.5,4.3 -9.1,7.7 -15.9,9.6c-0.2,0 -0.3,0 -0.4,0z" id="CompoundPath 1"/></g><path d="M477.1,558.7h-18c-0.8,0 -1.5,-0.7 -1.5,-1.5c0,-0.8 0.7,-1.5 1.5,-1.5h18c0.8,0 1.5,0.7 1.5,1.5c-0.1,0.8 -0.7,1.5 -1.5,1.5zM498,558.4c-0.7,0 -1.4,-0.5 -1.5,-1.3c-0.1,-0.8 0.5,-1.5 1.3,-1.7c5.7,-0.8 11,-3.2 15.4,-6.9c0.6,-0.5 1.5,-0.5 2.1,0.2c0.5,0.6 0.5,1.5 -0.2,2.1c-4.8,4.1 -10.7,6.8 -16.9,7.6c-0.1,0 -0.1,0 -0.2,0zM524.5,533.4c-0.1,0 -0.2,0 -0.3,0c-0.8,-0.2 -1.3,-0.9 -1.2,-1.7c0.4,-1.8 0.5,-3.7 0.5,-5.6v-12.1c0,-0.8 0.7,-1.5 1.5,-1.5c0.8,0 1.5,0.7 1.5,1.5v12.1c0,2.1 -0.2,4.1 -0.6,6.1c-0.1,0.7 -0.7,1.2 -1.4,1.2zM525.3,494.5c-0.1,0 -0.1,0 -0.2,0c-0.8,-0.1 -1.4,-0.9 -1.3,-1.7c0.9,-6.2 3.5,-12.1 7.7,-16.9c0.5,-0.6 1.5,-0.7 2.1,-0.1c0.6,0.5 0.7,1.5 0.1,2.1c-3.8,4.4 -6.2,9.7 -7,15.4c0,0.7 -0.6,1.2 -1.4,1.2zM550.4,468.1c-0.7,0 -1.3,-0.5 -1.4,-1.2c-0.2,-0.8 0.4,-1.6 1.2,-1.7c2,-0.4 4,-0.6 6,-0.6h12.2c0.8,0 1.5,0.7 1.5,1.5c0,0.8 -0.7,1.5 -1.5,1.5h-12.2c-1.8,0 -3.7,0.2 -5.5,0.5c-0.1,0 -0.2,0 -0.3,0zM589.2,465.9c-0.6,0 -1.2,-0.4 -1.4,-1.1c-0.2,-0.8 0.2,-1.6 1,-1.8c6.2,-1.7 11.3,-4.8 14.4,-8.6c0.5,-0.6 1.4,-0.7 2.1,-0.2c0.7,0.5 0.7,1.4 0.2,2.1c-3.5,4.3 -9.1,7.7 -15.9,9.6c-0.2,0 -0.3,0 -0.4,0z" id="CompoundPath 1" fill="#000000"/><g id="Group 1" fill="#000000"><path d="M607.9,436.6c-0.8,0 -1.5,-0.7 -1.5,-1.5v-8.8c0,-0.8 0.7,-1.5 1.5,-1.5c0.8,0 1.5,0.7 1.5,1.5v8.8c-0.1,0.9 -0.7,1.5 -1.5,1.5z" id="Path 1"/></g><path d="M607.9,436.6c-0.8,0 -1.5,-0.7 -1.5,-1.5v-8.8c0,-0.8 0.7,-1.5 1.5,-1.5c0.8,0 1.5,0.7 1.5,1.5v8.8c-0.1,0.9 -0.7,1.5 -1.5,1.5z" id="Path 1" fill="#000000"/><g id="Group 1"><path d="M468,423.6c0,21.4 -17.3,38.7 -38.7,38.7c-21.4,0 -38.7,-17.3 -38.7,-38.7c0,-21.4 17.3,-38.7 38.7,-38.7c21.4,0 38.7,17.3 38.7,38.7z" id="Path 1" fill="#ffffff"/><path d="M429.3,463.8c-22.1,0 -40.1,-18 -40.1,-40.1c0,-22.1 18,-40.2 40.1,-40.2c22.1,0 40.1,18 40.1,40.2c0.1,22.1 -17.9,40.1 -40.1,40.1zM429.3,386.4c-20.5,0 -37.2,16.7 -37.2,37.2c0,20.5 16.7,37.2 37.2,37.2c20.5,0 37.2,-16.7 37.2,-37.2c0,-20.5 -16.6,-37.2 -37.2,-37.2z" id="CompoundPath 1" fill="#000000"/></g><path d="M468,423.6c0,21.4 -17.3,38.7 -38.7,38.7c-21.4,0 -38.7,-17.3 -38.7,-38.7c0,-21.4 17.3,-38.7 38.7,-38.7c21.4,0 38.7,17.3 38.7,38.7z" id="Path 1" fill="#ffffff"/><path d="M429.3,463.8c-22.1,0 -40.1,-18 -40.1,-40.1c0,-22.1 18,-40.2 40.1,-40.2c22.1,0 40.1,18 40.1,40.2c0.1,22.1 -17.9,40.1 -40.1,40.1zM429.3,386.4c-20.5,0 -37.2,16.7 -37.2,37.2c0,20.5 16.7,37.2 37.2,37.2c20.5,0 37.2,-16.7 37.2,-37.2c0,-20.5 -16.6,-37.2 -37.2,-37.2z" id="CompoundPath 1" fill="#000000"/><g id="Group 1"><circle cx="607.9" cy="351" r="20.9" id="Shape 1" fill="#ffffff"/><path d="M607.9,373.4c-12.3,0 -22.4,-10 -22.4,-22.4c0,-12.4 10,-22.4 22.4,-22.4c12.3,0 22.4,10 22.4,22.4c0,12.4 -10.1,22.4 -22.4,22.4zM607.9,331.6c-10.7,0 -19.4,8.7 -19.4,19.5c0,10.8 8.7,19.5 19.4,19.5c10.7,0 19.4,-8.7 19.4,-19.5c0,-10.8 -8.7,-19.5 -19.4,-19.5z" id="CompoundPath 1" fill="#000000"/></g><circle cx="607.9" cy="351" r="20.9" id="Shape 1" fill="#ffffff"/><path d="M607.9,373.4c-12.3,0 -22.4,-10 -22.4,-22.4c0,-12.4 10,-22.4 22.4,-22.4c12.3,0 22.4,10 22.4,22.4c0,12.4 -10.1,22.4 -22.4,22.4zM607.9,331.6c-10.7,0 -19.4,8.7 -19.4,19.5c0,10.8 8.7,19.5 19.4,19.5c10.7,0 19.4,-8.7 19.4,-19.5c0,-10.8 -8.7,-19.5 -19.4,-19.5z" id="CompoundPath 1" fill="#000000"/></g></svg>